<?xml version="1.0" encoding="iso-8859-1"?>
<!-- Uploaded to: SVG Repo, www.svgrepo.com, Generator: SVG Repo Mixer Tools -->
<svg height="600px" width="600px" version="1.1" id="Layer_1" xmlns="http://www.w3.org/2000/svg" xmlns:xlink="http://www.w3.org/1999/xlink"
	 viewBox="0 0 512 512" xml:space="preserve">
<polygon style="fill:#808080;" points="337.058,120.42 337.058,153.986 272.786,153.986 272.786,301.3 239.221,301.3 
	239.221,153.986 174.95,153.986 174.95,120.42 239.221,120.42 239.221,60.761 272.786,60.761 272.786,120.42 "/>
<polygon style="fill:#999999;" points="501.205,456.061 501.205,502.68 10.802,502.68 10.802,456.061 50.894,456.061 
	351.367,456.061 419.43,456.061 461.113,456.061 "/>
<path style="fill:#E6E6E6;" d="M461.113,372.148v83.913H419.43c0.323-1.865,0.485-3.792,0.485-5.756
	c0-19.058-15.453-34.51-34.523-34.51c-19.058,0-34.51,15.452-34.51,34.51c0,1.964,0.162,3.891,0.485,5.756H50.894v-46.842
	c20.462,0,37.059-16.596,37.059-37.071h12.27h90.639h68.523c-0.622,2.076-0.945,4.264-0.945,6.527
	c0,12.705,10.293,22.999,22.999,22.999c12.705,0,22.998-10.293,22.998-22.999c0-2.263-0.323-4.451-0.945-6.527h50.224h27.35h30.719
	H461.113z M197.699,414.105c0-9.262-7.509-16.783-16.783-16.783c-9.262,0-16.783,7.521-16.783,16.783
	c0,9.274,7.521,16.783,16.783,16.783C190.191,430.887,197.699,423.379,197.699,414.105z"/>
<path style="fill:#808080;" d="M419.915,450.306c0,1.964-0.162,3.891-0.485,5.756h-68.063c-0.323-1.865-0.485-3.792-0.485-5.756
	c0-19.058,15.452-34.51,34.51-34.51C404.462,415.795,419.915,431.248,419.915,450.306z"/>
<path style="fill:#B3B3B3;" d="M381.066,372.148h-27.35h-50.224h-44.107h-68.523h-90.639V58.051
	c0-26.914,21.817-48.732,48.72-48.732h14.57h199.54c26.914,0,48.732,21.817,48.732,48.732v314.097L381.066,372.148L381.066,372.148z
	 M337.058,153.986V120.42h-64.271V60.761h-33.565v59.659H174.95v33.565h64.271V301.3h33.565V153.986H337.058z"/>
<g>
	<path style="fill:#808080;" d="M303.493,372.148c0.622,2.076,0.945,4.264,0.945,6.527c0,12.705-10.293,22.999-22.998,22.999
		c-12.705,0-22.999-10.293-22.999-22.999c0-2.263,0.323-4.451,0.945-6.527H303.493z"/>
	<path style="fill:#808080;" d="M180.917,397.322c9.274,0,16.783,7.521,16.783,16.783c0,9.274-7.509,16.783-16.783,16.783
		c-9.262,0-16.783-7.509-16.783-16.783C164.134,404.843,171.655,397.322,180.917,397.322z"/>
	<path style="fill:#808080;" d="M50.894,372.148h37.059c0,20.475-16.596,37.071-37.059,37.071
		C50.894,409.219,50.894,372.148,50.894,372.148z"/>
</g>
<g>
	<path style="fill:#333333;" d="M501.201,446.737h-30.766v-74.586c0-5.149-4.175-9.324-9.324-9.324h-40.01V58.044
		C421.102,26.039,395.063,0,363.057,0H148.943c-32.006,0-58.046,26.039-58.046,58.044v304.782H50.888
		c-5.149,0-9.324,4.175-9.324,9.324v74.586H10.799c-5.149,0-9.324,4.175-9.324,9.324v46.616c0,5.149,4.175,9.324,9.324,9.324
		h490.403c5.149,0,9.324-4.175,9.324-9.324V456.06C510.525,450.911,506.35,446.737,501.201,446.737z M109.544,58.044
		c0-13.539,6.866-25.503,17.299-32.598v52.075c0,5.149,4.175,9.324,9.324,9.324c5.149,0,9.324-4.175,9.324-9.324V18.808
		c1.139-0.099,2.289-0.16,3.452-0.16h5.25v36.497c0,5.149,4.175,9.324,9.324,9.324s9.324-4.175,9.324-9.324V18.647h190.217
		c21.724,0,39.397,17.674,39.397,39.397v304.782h-12.061V239.365c0-5.149-4.175-9.324-9.324-9.324c-5.149,0-9.324,4.175-9.324,9.324
		v123.462h-8.702v-60.061c0-5.149-4.175-9.324-9.324-9.324s-9.324,4.175-9.324,9.324v60.061h-40.701c-0.081-0.001-0.162,0-0.242,0
		h-44.038c-0.071,0-0.14-0.001-0.211,0H200.19v-24.009c0-5.149-4.175-9.324-9.324-9.324c-5.149,0-9.324,4.175-9.324,9.324v24.009
		h-71.998V58.044z M294.826,381.474c-1.297,6.201-6.804,10.874-13.384,10.874c-6.58,0-12.089-4.673-13.384-10.874H294.826z
		 M77.01,381.474c-2.795,7.806-8.992,14.003-16.798,16.798v-16.798H77.01z M60.212,417.596c18.112-3.711,32.41-18.01,36.12-36.12
		h152.916c1.425,16.515,15.315,29.521,32.193,29.521c16.878,0,30.768-13.006,32.193-29.521h138.153v65.262h-22.704
		c-1.825-22.506-20.715-40.265-43.688-40.265c-22.967,0-41.852,17.76-43.676,40.265H60.212V417.596z M360.493,446.737
		c1.743-12.199,12.23-21.617,24.903-21.617c12.679,0,23.173,9.418,24.915,21.617H360.493z M491.878,493.353H20.122v-27.969h471.755
		L491.878,493.353L491.878,493.353z"/>
	<path style="fill:#333333;" d="M229.894,163.31v137.984c0,5.149,4.175,9.324,9.324,9.324h33.564c5.149,0,9.324-4.175,9.324-9.324
		V163.31h54.949c5.149,0,9.324-4.175,9.324-9.324v-33.563c0-5.149-4.175-9.324-9.324-9.324h-54.949V60.755
		c0-5.149-4.175-9.324-9.324-9.324h-33.564c-5.149,0-9.324,4.175-9.324,9.324V111.1h-54.949c-5.149,0-9.324,4.175-9.324,9.324
		v33.564c0,5.149,4.175,9.324,9.324,9.324h54.949V163.31z M184.27,129.748h54.949c5.149,0,9.324-4.175,9.324-9.324V70.078h14.917
		v50.346c0,5.149,4.175,9.324,9.324,9.324h54.949v14.917h-54.949c-5.149,0-9.324,4.175-9.324,9.324v137.984h-14.917V153.987
		c0-5.149-4.175-9.324-9.324-9.324H184.27L184.27,129.748L184.27,129.748z"/>
	<path style="fill:#333333;" d="M180.92,388c-14.396,0-26.106,11.712-26.106,26.106c0,14.395,11.711,26.106,26.106,26.106
		s26.106-11.712,26.106-26.106C207.027,399.711,195.315,388,180.92,388z M180.92,421.565c-4.114,0-7.459-3.347-7.459-7.459
		s3.345-7.459,7.459-7.459s7.459,3.347,7.459,7.459S185.033,421.565,180.92,421.565z"/>
</g>
</svg>